  0
SECTION
  2
HEADER
  9
$ACADVER
  1
AC1015
  9
$INSUNITS
 70
4
  0
ENDSEC
  0
SECTION
  2
TABLES
  0
TABLE
  2
LAYER
 70
2
  0
LAYER
  2
ELEC-ALIMENTADORES
 70
0
 62
30
  6
CONTINUOUS
  0
LAYER
  2
ELEC-TABLEROS
 70
0
 62
30
  6
CONTINUOUS
  0
ENDTAB
  0
ENDSEC
  0
SECTION
  2
ENTITIES
  0
INSERT
  8
ELEC-TABLEROS
  2
TDA
 10
2400
 20
6500
 30
0
  0
TEXT
  8
ELEC-TABLEROS
 10
2600
 20
6600
 30
0
 40
220
  1
TDA
  0
LWPOLYLINE
100
AcDbEntity
  8
ELEC-ALIMENTADORES
100
AcDbPolyline
 90
5
 70
0
 43
0
 10
4500
 20
-500
 10
4500
 20
1500
 10
1500
 20
1500
 10
1500
 20
6500
 10
2400
 20
6500
  0
TEXT
  8
ELEC-ALIMENTADORES
 10
1600
 20
3800
 30
0
 40
200
  1
Acometida
  0
LWPOLYLINE
100
AcDbEntity
  8
ELEC-ALIMENTADORES
100
AcDbPolyline
 90
3
 70
0
 43
0
 10
2400
 20
6500
 10
2400
 20
8200
 10
15500
 20
8200
  0
TEXT
  8
ELEC-ALIMENTADORES
 10
8000
 20
8300
 30
0
 40
200
  1
Circuito dormitorios
  0
ENDSEC
  0
EOF
